<mxfile host="app.diagrams.net" modified="2022-03-21T07:20:44.176Z" agent="5.0 (Windows NT 10.0; Win64; x64) AppleWebKit/537.36 (KHTML, like Gecko) Chrome/99.0.4844.74 Safari/537.36 Edg/99.0.1150.46" etag="lX-rigbu-rqDyGZ8oz-3" version="17.1.3" type="github">
  <diagram id="C5RBs43oDa-KdzZeNtuy" name="Page-1">
    <mxGraphModel dx="1174" dy="762" grid="1" gridSize="10" guides="1" tooltips="1" connect="1" arrows="1" fold="1" page="1" pageScale="1" pageWidth="1654" pageHeight="1169" math="0" shadow="0">
      <root>
        <mxCell id="WIyWlLk6GJQsqaUBKTNV-0" />
        <mxCell id="WIyWlLk6GJQsqaUBKTNV-1" parent="WIyWlLk6GJQsqaUBKTNV-0" />
        <mxCell id="WIyWlLk6GJQsqaUBKTNV-2" value="" style="rounded=0;html=1;jettySize=auto;orthogonalLoop=1;fontSize=11;endArrow=block;endFill=0;endSize=8;strokeWidth=1;shadow=0;labelBackgroundColor=none;edgeStyle=orthogonalEdgeStyle;" parent="WIyWlLk6GJQsqaUBKTNV-1" source="WIyWlLk6GJQsqaUBKTNV-3" target="WIyWlLk6GJQsqaUBKTNV-6" edge="1">
          <mxGeometry relative="1" as="geometry" />
        </mxCell>
        <mxCell id="WIyWlLk6GJQsqaUBKTNV-3" value="寻峰解调算法" style="rounded=1;whiteSpace=wrap;html=1;fontSize=12;glass=0;strokeWidth=1;shadow=0;" parent="WIyWlLk6GJQsqaUBKTNV-1" vertex="1">
          <mxGeometry x="84.93" y="50" width="120" height="40" as="geometry" />
        </mxCell>
        <mxCell id="J0x9XYsGi_vWjbkLP-mo-1" value="" style="edgeStyle=orthogonalEdgeStyle;rounded=0;orthogonalLoop=1;jettySize=auto;html=1;" edge="1" parent="WIyWlLk6GJQsqaUBKTNV-1" source="WIyWlLk6GJQsqaUBKTNV-6" target="J0x9XYsGi_vWjbkLP-mo-0">
          <mxGeometry relative="1" as="geometry" />
        </mxCell>
        <mxCell id="J0x9XYsGi_vWjbkLP-mo-85" style="edgeStyle=orthogonalEdgeStyle;rounded=0;orthogonalLoop=1;jettySize=auto;html=1;exitX=0;exitY=0.5;exitDx=0;exitDy=0;entryX=0.5;entryY=0;entryDx=0;entryDy=0;" edge="1" parent="WIyWlLk6GJQsqaUBKTNV-1" source="WIyWlLk6GJQsqaUBKTNV-6" target="J0x9XYsGi_vWjbkLP-mo-4">
          <mxGeometry relative="1" as="geometry">
            <Array as="points">
              <mxPoint x="60" y="175" />
              <mxPoint x="60" y="320" />
              <mxPoint x="145" y="320" />
            </Array>
          </mxGeometry>
        </mxCell>
        <mxCell id="WIyWlLk6GJQsqaUBKTNV-6" value="lock_start==1&amp;amp;&lt;br&gt;lock_status==0?&lt;br&gt;" style="rhombus;whiteSpace=wrap;html=1;shadow=0;fontFamily=Helvetica;fontSize=12;align=center;strokeWidth=1;spacing=6;spacingTop=-4;" parent="WIyWlLk6GJQsqaUBKTNV-1" vertex="1">
          <mxGeometry x="79.93" y="130" width="130" height="90" as="geometry" />
        </mxCell>
        <mxCell id="WIyWlLk6GJQsqaUBKTNV-11" value="单通道寻峰结束" style="rounded=1;whiteSpace=wrap;html=1;fontSize=12;glass=0;strokeWidth=1;shadow=0;" parent="WIyWlLk6GJQsqaUBKTNV-1" vertex="1">
          <mxGeometry x="789.9699999999999" y="1070" width="120" height="30" as="geometry" />
        </mxCell>
        <mxCell id="J0x9XYsGi_vWjbkLP-mo-5" value="峰位" style="edgeStyle=orthogonalEdgeStyle;rounded=0;orthogonalLoop=1;jettySize=auto;html=1;" edge="1" parent="WIyWlLk6GJQsqaUBKTNV-1" source="J0x9XYsGi_vWjbkLP-mo-0" target="J0x9XYsGi_vWjbkLP-mo-4">
          <mxGeometry x="0.1429" relative="1" as="geometry">
            <mxPoint as="offset" />
          </mxGeometry>
        </mxCell>
        <mxCell id="J0x9XYsGi_vWjbkLP-mo-0" value="&lt;b&gt;多峰检测算法&lt;/b&gt;&lt;br&gt;①导数法&lt;br&gt;②特征识别法" style="whiteSpace=wrap;html=1;shadow=0;strokeWidth=1;spacing=6;spacingTop=-4;" vertex="1" parent="WIyWlLk6GJQsqaUBKTNV-1">
          <mxGeometry x="84.93" y="240" width="120" height="60" as="geometry" />
        </mxCell>
        <mxCell id="J0x9XYsGi_vWjbkLP-mo-7" value="" style="edgeStyle=orthogonalEdgeStyle;rounded=0;orthogonalLoop=1;jettySize=auto;html=1;" edge="1" parent="WIyWlLk6GJQsqaUBKTNV-1" source="J0x9XYsGi_vWjbkLP-mo-4" target="J0x9XYsGi_vWjbkLP-mo-6">
          <mxGeometry relative="1" as="geometry" />
        </mxCell>
        <mxCell id="J0x9XYsGi_vWjbkLP-mo-4" value="&lt;b&gt;谱峰信息提取&lt;/b&gt;&lt;br&gt;峰数peakNum&lt;br&gt;峰宽peakwid、峰高peakH&lt;br&gt;峰度peak_kurt&lt;br&gt;对称度peak_sym" style="whiteSpace=wrap;html=1;shadow=0;strokeWidth=1;spacing=6;spacingTop=-4;" vertex="1" parent="WIyWlLk6GJQsqaUBKTNV-1">
          <mxGeometry x="64.93" y="370" width="160" height="80" as="geometry" />
        </mxCell>
        <mxCell id="J0x9XYsGi_vWjbkLP-mo-9" value="" style="edgeStyle=orthogonalEdgeStyle;rounded=0;orthogonalLoop=1;jettySize=auto;html=1;" edge="1" parent="WIyWlLk6GJQsqaUBKTNV-1" source="J0x9XYsGi_vWjbkLP-mo-6" target="J0x9XYsGi_vWjbkLP-mo-8">
          <mxGeometry relative="1" as="geometry" />
        </mxCell>
        <mxCell id="J0x9XYsGi_vWjbkLP-mo-10" style="edgeStyle=orthogonalEdgeStyle;rounded=0;orthogonalLoop=1;jettySize=auto;html=1;exitX=0.75;exitY=0;exitDx=0;exitDy=0;" edge="1" parent="WIyWlLk6GJQsqaUBKTNV-1" source="J0x9XYsGi_vWjbkLP-mo-6">
          <mxGeometry relative="1" as="geometry">
            <mxPoint x="162.93" y="500" as="targetPoint" />
          </mxGeometry>
        </mxCell>
        <mxCell id="J0x9XYsGi_vWjbkLP-mo-6" value="i=0" style="whiteSpace=wrap;html=1;shadow=0;strokeWidth=1;spacing=6;spacingTop=-4;" vertex="1" parent="WIyWlLk6GJQsqaUBKTNV-1">
          <mxGeometry x="109.93" y="485" width="70" height="30" as="geometry" />
        </mxCell>
        <mxCell id="J0x9XYsGi_vWjbkLP-mo-12" value="" style="edgeStyle=orthogonalEdgeStyle;rounded=0;orthogonalLoop=1;jettySize=auto;html=1;" edge="1" parent="WIyWlLk6GJQsqaUBKTNV-1" source="J0x9XYsGi_vWjbkLP-mo-8" target="J0x9XYsGi_vWjbkLP-mo-11">
          <mxGeometry relative="1" as="geometry" />
        </mxCell>
        <mxCell id="J0x9XYsGi_vWjbkLP-mo-8" value="i&amp;lt;peakNum?" style="rhombus;whiteSpace=wrap;html=1;shadow=0;strokeWidth=1;spacing=6;spacingTop=-4;" vertex="1" parent="WIyWlLk6GJQsqaUBKTNV-1">
          <mxGeometry x="89.93" y="550" width="110" height="80" as="geometry" />
        </mxCell>
        <mxCell id="J0x9XYsGi_vWjbkLP-mo-14" value="" style="edgeStyle=orthogonalEdgeStyle;rounded=0;orthogonalLoop=1;jettySize=auto;html=1;" edge="1" parent="WIyWlLk6GJQsqaUBKTNV-1" source="J0x9XYsGi_vWjbkLP-mo-11" target="J0x9XYsGi_vWjbkLP-mo-13">
          <mxGeometry relative="1" as="geometry" />
        </mxCell>
        <mxCell id="J0x9XYsGi_vWjbkLP-mo-18" value="" style="edgeStyle=orthogonalEdgeStyle;rounded=0;orthogonalLoop=1;jettySize=auto;html=1;" edge="1" parent="WIyWlLk6GJQsqaUBKTNV-1" source="J0x9XYsGi_vWjbkLP-mo-11" target="J0x9XYsGi_vWjbkLP-mo-17">
          <mxGeometry relative="1" as="geometry" />
        </mxCell>
        <mxCell id="J0x9XYsGi_vWjbkLP-mo-11" value="peak_kurt&amp;lt;0.1&amp;amp;&lt;br&gt;peak_sym&amp;lt;0.1?" style="rhombus;whiteSpace=wrap;html=1;shadow=0;strokeWidth=1;spacing=6;spacingTop=-4;" vertex="1" parent="WIyWlLk6GJQsqaUBKTNV-1">
          <mxGeometry x="79.93" y="660" width="130" height="70" as="geometry" />
        </mxCell>
        <mxCell id="J0x9XYsGi_vWjbkLP-mo-16" value="" style="edgeStyle=orthogonalEdgeStyle;rounded=0;orthogonalLoop=1;jettySize=auto;html=1;" edge="1" parent="WIyWlLk6GJQsqaUBKTNV-1" source="J0x9XYsGi_vWjbkLP-mo-13" target="J0x9XYsGi_vWjbkLP-mo-15">
          <mxGeometry relative="1" as="geometry" />
        </mxCell>
        <mxCell id="J0x9XYsGi_vWjbkLP-mo-13" value="提取FWHM拟合区间&lt;br&gt;拟合点数FIT_NUM&lt;br&gt;样点间隔&lt;br&gt;interval=[peakwid/FIT_NUM]" style="whiteSpace=wrap;html=1;shadow=0;strokeWidth=1;spacing=6;spacingTop=-4;" vertex="1" parent="WIyWlLk6GJQsqaUBKTNV-1">
          <mxGeometry x="59.93" y="760" width="170" height="70" as="geometry" />
        </mxCell>
        <mxCell id="J0x9XYsGi_vWjbkLP-mo-96" value="" style="edgeStyle=orthogonalEdgeStyle;rounded=0;orthogonalLoop=1;jettySize=auto;html=1;" edge="1" parent="WIyWlLk6GJQsqaUBKTNV-1" source="J0x9XYsGi_vWjbkLP-mo-15" target="J0x9XYsGi_vWjbkLP-mo-31">
          <mxGeometry relative="1" as="geometry">
            <Array as="points">
              <mxPoint x="145" y="1020" />
              <mxPoint x="145" y="1020" />
            </Array>
          </mxGeometry>
        </mxCell>
        <mxCell id="J0x9XYsGi_vWjbkLP-mo-15" value="&lt;b&gt;传统寻峰算法&lt;/b&gt;&lt;br&gt;最大值/3dB/质心&lt;br&gt;多项式/高斯多项式&lt;br&gt;高斯LM" style="whiteSpace=wrap;html=1;shadow=0;strokeWidth=1;spacing=6;spacingTop=-4;" vertex="1" parent="WIyWlLk6GJQsqaUBKTNV-1">
          <mxGeometry x="84.93" y="860" width="120" height="70" as="geometry" />
        </mxCell>
        <mxCell id="J0x9XYsGi_vWjbkLP-mo-22" value="" style="edgeStyle=orthogonalEdgeStyle;rounded=0;orthogonalLoop=1;jettySize=auto;html=1;" edge="1" parent="WIyWlLk6GJQsqaUBKTNV-1" source="J0x9XYsGi_vWjbkLP-mo-17" target="J0x9XYsGi_vWjbkLP-mo-21">
          <mxGeometry relative="1" as="geometry" />
        </mxCell>
        <mxCell id="J0x9XYsGi_vWjbkLP-mo-17" value="提取edge拟合区间&lt;br&gt;thrL=0.2&lt;br&gt;thrH=0.8" style="whiteSpace=wrap;html=1;shadow=0;strokeWidth=1;spacing=6;spacingTop=-4;" vertex="1" parent="WIyWlLk6GJQsqaUBKTNV-1">
          <mxGeometry x="244.93" y="742.5" width="120" height="57.5" as="geometry" />
        </mxCell>
        <mxCell id="J0x9XYsGi_vWjbkLP-mo-24" value="" style="edgeStyle=orthogonalEdgeStyle;rounded=0;orthogonalLoop=1;jettySize=auto;html=1;" edge="1" parent="WIyWlLk6GJQsqaUBKTNV-1" source="J0x9XYsGi_vWjbkLP-mo-21" target="J0x9XYsGi_vWjbkLP-mo-23">
          <mxGeometry relative="1" as="geometry" />
        </mxCell>
        <mxCell id="J0x9XYsGi_vWjbkLP-mo-28" value="" style="edgeStyle=orthogonalEdgeStyle;rounded=0;orthogonalLoop=1;jettySize=auto;html=1;" edge="1" parent="WIyWlLk6GJQsqaUBKTNV-1" source="J0x9XYsGi_vWjbkLP-mo-21" target="J0x9XYsGi_vWjbkLP-mo-27">
          <mxGeometry relative="1" as="geometry" />
        </mxCell>
        <mxCell id="J0x9XYsGi_vWjbkLP-mo-21" value="lock_status=0?" style="rhombus;whiteSpace=wrap;html=1;shadow=0;strokeWidth=1;spacing=6;spacingTop=-4;" vertex="1" parent="WIyWlLk6GJQsqaUBKTNV-1">
          <mxGeometry x="242.43" y="830" width="125" height="50" as="geometry" />
        </mxCell>
        <mxCell id="J0x9XYsGi_vWjbkLP-mo-26" value="" style="edgeStyle=orthogonalEdgeStyle;rounded=0;orthogonalLoop=1;jettySize=auto;html=1;" edge="1" parent="WIyWlLk6GJQsqaUBKTNV-1" source="J0x9XYsGi_vWjbkLP-mo-23" target="J0x9XYsGi_vWjbkLP-mo-25">
          <mxGeometry relative="1" as="geometry" />
        </mxCell>
        <mxCell id="J0x9XYsGi_vWjbkLP-mo-23" value="双边限幅高斯拟合" style="whiteSpace=wrap;html=1;shadow=0;strokeWidth=1;spacing=6;spacingTop=-4;" vertex="1" parent="WIyWlLk6GJQsqaUBKTNV-1">
          <mxGeometry x="244.93" y="910" width="120" height="30" as="geometry" />
        </mxCell>
        <mxCell id="J0x9XYsGi_vWjbkLP-mo-33" style="edgeStyle=orthogonalEdgeStyle;rounded=0;orthogonalLoop=1;jettySize=auto;html=1;" edge="1" parent="WIyWlLk6GJQsqaUBKTNV-1" source="J0x9XYsGi_vWjbkLP-mo-25" target="J0x9XYsGi_vWjbkLP-mo-31">
          <mxGeometry relative="1" as="geometry" />
        </mxCell>
        <mxCell id="J0x9XYsGi_vWjbkLP-mo-25" value="保存最大幅值MAXAMP&lt;br&gt;和高斯标准差SIGMA" style="whiteSpace=wrap;html=1;shadow=0;strokeWidth=1;spacing=6;spacingTop=-4;" vertex="1" parent="WIyWlLk6GJQsqaUBKTNV-1">
          <mxGeometry x="234.93" y="962.5" width="140" height="50" as="geometry" />
        </mxCell>
        <mxCell id="J0x9XYsGi_vWjbkLP-mo-30" value="" style="edgeStyle=orthogonalEdgeStyle;rounded=0;orthogonalLoop=1;jettySize=auto;html=1;" edge="1" parent="WIyWlLk6GJQsqaUBKTNV-1" source="J0x9XYsGi_vWjbkLP-mo-27" target="J0x9XYsGi_vWjbkLP-mo-29">
          <mxGeometry relative="1" as="geometry" />
        </mxCell>
        <mxCell id="J0x9XYsGi_vWjbkLP-mo-27" value="取MAXAMP和SIGMA的均值" style="whiteSpace=wrap;html=1;shadow=0;strokeWidth=1;spacing=6;spacingTop=-4;" vertex="1" parent="WIyWlLk6GJQsqaUBKTNV-1">
          <mxGeometry x="394.86" y="900" width="165.07" height="40" as="geometry" />
        </mxCell>
        <mxCell id="J0x9XYsGi_vWjbkLP-mo-34" style="edgeStyle=orthogonalEdgeStyle;rounded=0;orthogonalLoop=1;jettySize=auto;html=1;" edge="1" parent="WIyWlLk6GJQsqaUBKTNV-1" source="J0x9XYsGi_vWjbkLP-mo-29" target="J0x9XYsGi_vWjbkLP-mo-31">
          <mxGeometry relative="1" as="geometry">
            <Array as="points">
              <mxPoint x="470" y="1050" />
              <mxPoint x="470" y="1050" />
            </Array>
          </mxGeometry>
        </mxCell>
        <mxCell id="J0x9XYsGi_vWjbkLP-mo-29" value="&lt;b&gt;双边限幅限宽高斯拟合&lt;/b&gt;" style="whiteSpace=wrap;html=1;shadow=0;strokeWidth=1;spacing=6;spacingTop=-4;" vertex="1" parent="WIyWlLk6GJQsqaUBKTNV-1">
          <mxGeometry x="402.40000000000003" y="975" width="150" height="25" as="geometry" />
        </mxCell>
        <mxCell id="J0x9XYsGi_vWjbkLP-mo-36" value="" style="edgeStyle=orthogonalEdgeStyle;rounded=0;orthogonalLoop=1;jettySize=auto;html=1;" edge="1" parent="WIyWlLk6GJQsqaUBKTNV-1" source="J0x9XYsGi_vWjbkLP-mo-31" target="J0x9XYsGi_vWjbkLP-mo-37">
          <mxGeometry relative="1" as="geometry">
            <mxPoint x="654.93" y="125" as="targetPoint" />
            <Array as="points">
              <mxPoint x="575" y="1065" />
              <mxPoint x="575" y="60" />
              <mxPoint x="705" y="60" />
            </Array>
          </mxGeometry>
        </mxCell>
        <mxCell id="J0x9XYsGi_vWjbkLP-mo-31" value="峰位peakPos 峰高peakH" style="whiteSpace=wrap;html=1;shadow=0;strokeWidth=1;spacing=6;spacingTop=-4;" vertex="1" parent="WIyWlLk6GJQsqaUBKTNV-1">
          <mxGeometry x="69.93" y="1050" width="470" height="30" as="geometry" />
        </mxCell>
        <mxCell id="J0x9XYsGi_vWjbkLP-mo-40" value="" style="edgeStyle=orthogonalEdgeStyle;rounded=0;orthogonalLoop=1;jettySize=auto;html=1;entryX=0.5;entryY=0;entryDx=0;entryDy=0;" edge="1" parent="WIyWlLk6GJQsqaUBKTNV-1" source="J0x9XYsGi_vWjbkLP-mo-37" target="J0x9XYsGi_vWjbkLP-mo-41">
          <mxGeometry relative="1" as="geometry">
            <mxPoint x="704.93" y="190" as="targetPoint" />
            <Array as="points" />
          </mxGeometry>
        </mxCell>
        <mxCell id="J0x9XYsGi_vWjbkLP-mo-50" style="edgeStyle=orthogonalEdgeStyle;rounded=0;orthogonalLoop=1;jettySize=auto;html=1;exitX=0;exitY=0.5;exitDx=0;exitDy=0;entryX=0.5;entryY=0;entryDx=0;entryDy=0;" edge="1" parent="WIyWlLk6GJQsqaUBKTNV-1" source="J0x9XYsGi_vWjbkLP-mo-37" target="J0x9XYsGi_vWjbkLP-mo-53">
          <mxGeometry relative="1" as="geometry">
            <mxPoint x="614.93" y="410" as="targetPoint" />
            <Array as="points">
              <mxPoint x="604.93" y="120" />
              <mxPoint x="604.93" y="370" />
              <mxPoint x="704.93" y="370" />
            </Array>
          </mxGeometry>
        </mxCell>
        <mxCell id="J0x9XYsGi_vWjbkLP-mo-37" value="lock_start=1?&lt;br&gt;" style="rhombus;whiteSpace=wrap;html=1;" vertex="1" parent="WIyWlLk6GJQsqaUBKTNV-1">
          <mxGeometry x="654.93" y="90" width="100" height="60" as="geometry" />
        </mxCell>
        <mxCell id="J0x9XYsGi_vWjbkLP-mo-45" value="" style="edgeStyle=orthogonalEdgeStyle;rounded=0;orthogonalLoop=1;jettySize=auto;html=1;" edge="1" parent="WIyWlLk6GJQsqaUBKTNV-1" source="J0x9XYsGi_vWjbkLP-mo-41" target="J0x9XYsGi_vWjbkLP-mo-44">
          <mxGeometry relative="1" as="geometry" />
        </mxCell>
        <mxCell id="J0x9XYsGi_vWjbkLP-mo-47" value="" style="edgeStyle=orthogonalEdgeStyle;rounded=0;orthogonalLoop=1;jettySize=auto;html=1;" edge="1" parent="WIyWlLk6GJQsqaUBKTNV-1" source="J0x9XYsGi_vWjbkLP-mo-41" target="J0x9XYsGi_vWjbkLP-mo-46">
          <mxGeometry relative="1" as="geometry" />
        </mxCell>
        <mxCell id="J0x9XYsGi_vWjbkLP-mo-41" value="&lt;span&gt;是否失锁&lt;/span&gt;&lt;br&gt;&lt;span&gt;kalman_pre-peakPos&amp;lt;&lt;br&gt;lock_region?&lt;br&gt;&lt;/span&gt;" style="rhombus;whiteSpace=wrap;html=1;" vertex="1" parent="WIyWlLk6GJQsqaUBKTNV-1">
          <mxGeometry x="624.93" y="180" width="160" height="80" as="geometry" />
        </mxCell>
        <mxCell id="J0x9XYsGi_vWjbkLP-mo-55" value="" style="edgeStyle=orthogonalEdgeStyle;rounded=0;orthogonalLoop=1;jettySize=auto;html=1;" edge="1" parent="WIyWlLk6GJQsqaUBKTNV-1" source="J0x9XYsGi_vWjbkLP-mo-44" target="J0x9XYsGi_vWjbkLP-mo-53">
          <mxGeometry relative="1" as="geometry" />
        </mxCell>
        <mxCell id="J0x9XYsGi_vWjbkLP-mo-44" value="lcok_status=1" style="whiteSpace=wrap;html=1;" vertex="1" parent="WIyWlLk6GJQsqaUBKTNV-1">
          <mxGeometry x="644.93" y="300" width="120" height="30" as="geometry" />
        </mxCell>
        <mxCell id="J0x9XYsGi_vWjbkLP-mo-56" style="edgeStyle=orthogonalEdgeStyle;rounded=0;orthogonalLoop=1;jettySize=auto;html=1;exitX=0.5;exitY=1;exitDx=0;exitDy=0;entryX=0.5;entryY=0;entryDx=0;entryDy=0;" edge="1" parent="WIyWlLk6GJQsqaUBKTNV-1" source="J0x9XYsGi_vWjbkLP-mo-46" target="J0x9XYsGi_vWjbkLP-mo-53">
          <mxGeometry relative="1" as="geometry" />
        </mxCell>
        <mxCell id="J0x9XYsGi_vWjbkLP-mo-46" value="&lt;span style=&quot;color: rgb(0 , 0 , 0) ; font-family: &amp;#34;helvetica&amp;#34; ; font-size: 12px ; font-style: normal ; font-weight: 400 ; letter-spacing: normal ; text-align: center ; text-indent: 0px ; text-transform: none ; word-spacing: 0px ; background-color: rgb(248 , 249 , 250) ; display: inline ; float: none&quot;&gt;lcok_status=0&lt;/span&gt;" style="whiteSpace=wrap;html=1;" vertex="1" parent="WIyWlLk6GJQsqaUBKTNV-1">
          <mxGeometry x="804.93" y="300" width="120" height="30" as="geometry" />
        </mxCell>
        <mxCell id="J0x9XYsGi_vWjbkLP-mo-58" value="" style="edgeStyle=orthogonalEdgeStyle;rounded=0;orthogonalLoop=1;jettySize=auto;html=1;" edge="1" parent="WIyWlLk6GJQsqaUBKTNV-1" source="J0x9XYsGi_vWjbkLP-mo-53" target="J0x9XYsGi_vWjbkLP-mo-57">
          <mxGeometry relative="1" as="geometry" />
        </mxCell>
        <mxCell id="J0x9XYsGi_vWjbkLP-mo-73" value="" style="edgeStyle=orthogonalEdgeStyle;rounded=0;orthogonalLoop=1;jettySize=auto;html=1;" edge="1" parent="WIyWlLk6GJQsqaUBKTNV-1" source="J0x9XYsGi_vWjbkLP-mo-53" target="J0x9XYsGi_vWjbkLP-mo-70">
          <mxGeometry relative="1" as="geometry" />
        </mxCell>
        <mxCell id="J0x9XYsGi_vWjbkLP-mo-53" value="kalmanDataNum&amp;lt;FITNUM?" style="rhombus;whiteSpace=wrap;html=1;" vertex="1" parent="WIyWlLk6GJQsqaUBKTNV-1">
          <mxGeometry x="594.93" y="420" width="220" height="80" as="geometry" />
        </mxCell>
        <mxCell id="J0x9XYsGi_vWjbkLP-mo-90" style="edgeStyle=orthogonalEdgeStyle;rounded=0;orthogonalLoop=1;jettySize=auto;html=1;exitX=0.5;exitY=1;exitDx=0;exitDy=0;" edge="1" parent="WIyWlLk6GJQsqaUBKTNV-1" source="J0x9XYsGi_vWjbkLP-mo-57" target="J0x9XYsGi_vWjbkLP-mo-74">
          <mxGeometry relative="1" as="geometry">
            <Array as="points">
              <mxPoint x="985" y="670" />
              <mxPoint x="985" y="670" />
            </Array>
          </mxGeometry>
        </mxCell>
        <mxCell id="J0x9XYsGi_vWjbkLP-mo-57" value="保存本次寻峰数据&lt;br&gt;peakPosHist" style="whiteSpace=wrap;html=1;" vertex="1" parent="WIyWlLk6GJQsqaUBKTNV-1">
          <mxGeometry x="924.93" y="435" width="120" height="50" as="geometry" />
        </mxCell>
        <mxCell id="J0x9XYsGi_vWjbkLP-mo-63" value="" style="edgeStyle=orthogonalEdgeStyle;rounded=0;orthogonalLoop=1;jettySize=auto;html=1;" edge="1" parent="WIyWlLk6GJQsqaUBKTNV-1" source="J0x9XYsGi_vWjbkLP-mo-61" target="J0x9XYsGi_vWjbkLP-mo-62">
          <mxGeometry relative="1" as="geometry" />
        </mxCell>
        <mxCell id="J0x9XYsGi_vWjbkLP-mo-65" value="" style="edgeStyle=orthogonalEdgeStyle;rounded=0;orthogonalLoop=1;jettySize=auto;html=1;" edge="1" parent="WIyWlLk6GJQsqaUBKTNV-1" source="J0x9XYsGi_vWjbkLP-mo-61">
          <mxGeometry relative="1" as="geometry">
            <mxPoint x="864.93" y="740" as="targetPoint" />
          </mxGeometry>
        </mxCell>
        <mxCell id="J0x9XYsGi_vWjbkLP-mo-61" value="KALMANTYPE=1？" style="rhombus;whiteSpace=wrap;html=1;" vertex="1" parent="WIyWlLk6GJQsqaUBKTNV-1">
          <mxGeometry x="639.93" y="652.5" width="130" height="80" as="geometry" />
        </mxCell>
        <mxCell id="J0x9XYsGi_vWjbkLP-mo-75" value="" style="edgeStyle=orthogonalEdgeStyle;rounded=0;orthogonalLoop=1;jettySize=auto;html=1;" edge="1" parent="WIyWlLk6GJQsqaUBKTNV-1" source="J0x9XYsGi_vWjbkLP-mo-62" target="J0x9XYsGi_vWjbkLP-mo-74">
          <mxGeometry relative="1" as="geometry" />
        </mxCell>
        <mxCell id="J0x9XYsGi_vWjbkLP-mo-62" value="1Dkalman滤波" style="whiteSpace=wrap;html=1;" vertex="1" parent="WIyWlLk6GJQsqaUBKTNV-1">
          <mxGeometry x="644.93" y="780" width="120" height="37.5" as="geometry" />
        </mxCell>
        <mxCell id="J0x9XYsGi_vWjbkLP-mo-69" value="" style="edgeStyle=orthogonalEdgeStyle;rounded=0;orthogonalLoop=1;jettySize=auto;html=1;" edge="1" parent="WIyWlLk6GJQsqaUBKTNV-1" source="J0x9XYsGi_vWjbkLP-mo-64" target="J0x9XYsGi_vWjbkLP-mo-68">
          <mxGeometry relative="1" as="geometry" />
        </mxCell>
        <mxCell id="J0x9XYsGi_vWjbkLP-mo-64" value="二次多项式拟合预估速度和加速度" style="whiteSpace=wrap;html=1;" vertex="1" parent="WIyWlLk6GJQsqaUBKTNV-1">
          <mxGeometry x="804.93" y="732.5" width="120" height="40" as="geometry" />
        </mxCell>
        <mxCell id="J0x9XYsGi_vWjbkLP-mo-76" value="" style="edgeStyle=orthogonalEdgeStyle;rounded=0;orthogonalLoop=1;jettySize=auto;html=1;" edge="1" parent="WIyWlLk6GJQsqaUBKTNV-1" source="J0x9XYsGi_vWjbkLP-mo-68" target="J0x9XYsGi_vWjbkLP-mo-74">
          <mxGeometry relative="1" as="geometry" />
        </mxCell>
        <mxCell id="J0x9XYsGi_vWjbkLP-mo-68" value="2Dkalman滤波" style="whiteSpace=wrap;html=1;" vertex="1" parent="WIyWlLk6GJQsqaUBKTNV-1">
          <mxGeometry x="804.93" y="792.5" width="120" height="40" as="geometry" />
        </mxCell>
        <mxCell id="J0x9XYsGi_vWjbkLP-mo-89" value="" style="edgeStyle=orthogonalEdgeStyle;rounded=0;orthogonalLoop=1;jettySize=auto;html=1;" edge="1" parent="WIyWlLk6GJQsqaUBKTNV-1" source="J0x9XYsGi_vWjbkLP-mo-70" target="J0x9XYsGi_vWjbkLP-mo-86">
          <mxGeometry relative="1" as="geometry" />
        </mxCell>
        <mxCell id="J0x9XYsGi_vWjbkLP-mo-70" value="保存本次寻峰数据&lt;br&gt;peakPosHist" style="whiteSpace=wrap;html=1;" vertex="1" parent="WIyWlLk6GJQsqaUBKTNV-1">
          <mxGeometry x="644.93" y="510" width="120" height="50" as="geometry" />
        </mxCell>
        <mxCell id="J0x9XYsGi_vWjbkLP-mo-78" value="" style="edgeStyle=orthogonalEdgeStyle;rounded=0;orthogonalLoop=1;jettySize=auto;html=1;" edge="1" parent="WIyWlLk6GJQsqaUBKTNV-1" source="J0x9XYsGi_vWjbkLP-mo-74" target="J0x9XYsGi_vWjbkLP-mo-77">
          <mxGeometry relative="1" as="geometry" />
        </mxCell>
        <mxCell id="J0x9XYsGi_vWjbkLP-mo-94" style="edgeStyle=orthogonalEdgeStyle;rounded=0;orthogonalLoop=1;jettySize=auto;html=1;exitX=1;exitY=0.5;exitDx=0;exitDy=0;entryX=1;entryY=0.5;entryDx=0;entryDy=0;" edge="1" parent="WIyWlLk6GJQsqaUBKTNV-1" source="J0x9XYsGi_vWjbkLP-mo-74" target="J0x9XYsGi_vWjbkLP-mo-91">
          <mxGeometry relative="1" as="geometry">
            <Array as="points">
              <mxPoint x="1080" y="910" />
              <mxPoint x="1080" y="30" />
              <mxPoint x="440" y="30" />
              <mxPoint x="440" y="530" />
            </Array>
          </mxGeometry>
        </mxCell>
        <mxCell id="J0x9XYsGi_vWjbkLP-mo-74" value="卡尔曼预测值&lt;br&gt;kalman_pre" style="whiteSpace=wrap;html=1;" vertex="1" parent="WIyWlLk6GJQsqaUBKTNV-1">
          <mxGeometry x="639.93" y="890" width="420.07" height="40" as="geometry" />
        </mxCell>
        <mxCell id="J0x9XYsGi_vWjbkLP-mo-82" value="" style="edgeStyle=orthogonalEdgeStyle;rounded=0;orthogonalLoop=1;jettySize=auto;html=1;" edge="1" parent="WIyWlLk6GJQsqaUBKTNV-1" source="J0x9XYsGi_vWjbkLP-mo-77" target="WIyWlLk6GJQsqaUBKTNV-11">
          <mxGeometry relative="1" as="geometry" />
        </mxCell>
        <mxCell id="J0x9XYsGi_vWjbkLP-mo-77" value="&lt;span style=&quot;color: rgb(0 , 0 , 0) ; font-family: &amp;#34;helvetica&amp;#34; ; font-size: 12px ; font-style: normal ; font-weight: 400 ; letter-spacing: normal ; text-align: center ; text-indent: 0px ; text-transform: none ; word-spacing: 0px ; background-color: rgb(248 , 249 , 250) ; display: inline ; float: none&quot;&gt;kalmanDataNum++&lt;/span&gt;" style="whiteSpace=wrap;html=1;" vertex="1" parent="WIyWlLk6GJQsqaUBKTNV-1">
          <mxGeometry x="789.9699999999999" y="1000" width="120" height="30" as="geometry" />
        </mxCell>
        <mxCell id="J0x9XYsGi_vWjbkLP-mo-88" value="" style="edgeStyle=orthogonalEdgeStyle;rounded=0;orthogonalLoop=1;jettySize=auto;html=1;" edge="1" parent="WIyWlLk6GJQsqaUBKTNV-1" source="J0x9XYsGi_vWjbkLP-mo-86" target="J0x9XYsGi_vWjbkLP-mo-61">
          <mxGeometry relative="1" as="geometry" />
        </mxCell>
        <mxCell id="J0x9XYsGi_vWjbkLP-mo-86" value="lock_start=1" style="rounded=0;whiteSpace=wrap;html=1;" vertex="1" parent="WIyWlLk6GJQsqaUBKTNV-1">
          <mxGeometry x="644.93" y="590" width="120" height="30" as="geometry" />
        </mxCell>
        <mxCell id="J0x9XYsGi_vWjbkLP-mo-95" style="edgeStyle=orthogonalEdgeStyle;rounded=0;orthogonalLoop=1;jettySize=auto;html=1;exitX=0;exitY=0.5;exitDx=0;exitDy=0;entryX=0.5;entryY=0;entryDx=0;entryDy=0;" edge="1" parent="WIyWlLk6GJQsqaUBKTNV-1" source="J0x9XYsGi_vWjbkLP-mo-91" target="J0x9XYsGi_vWjbkLP-mo-8">
          <mxGeometry relative="1" as="geometry" />
        </mxCell>
        <mxCell id="J0x9XYsGi_vWjbkLP-mo-91" value="i++" style="whiteSpace=wrap;html=1;shadow=0;strokeWidth=1;spacing=6;spacingTop=-4;" vertex="1" parent="WIyWlLk6GJQsqaUBKTNV-1">
          <mxGeometry x="260" y="515" width="70" height="30" as="geometry" />
        </mxCell>
      </root>
    </mxGraphModel>
  </diagram>
</mxfile>
